# TennisPods Realistic Tennis Racquet 3D Model
# Pivot point is at Butt Cap bottom: (0, 0, 0)
# Vertices: 1129, Faces: 1128
o TennisRacquet

v 0.00000 0.00000 0.00000
v 0.18500 0.00000 0.00000
v 0.13081 0.00000 0.13081
v 0.00000 0.00000 0.18500
v -0.13081 0.00000 0.13081
v -0.18500 0.00000 0.00000
v -0.13081 0.00000 -0.13081
v -0.00000 0.00000 -0.18500
v 0.13081 0.00000 -0.13081
v 0.18500 0.00000 0.00000
v 0.17500 0.12000 0.00000
v 0.13081 0.00000 0.13081
v 0.12374 0.12000 0.12374
v 0.00000 0.00000 0.18500
v 0.00000 0.12000 0.17500
v -0.13081 0.00000 0.13081
v -0.12374 0.12000 0.12374
v -0.18500 0.00000 0.00000
v -0.17500 0.12000 0.00000
v -0.13081 0.00000 -0.13081
v -0.12374 0.12000 -0.12374
v -0.00000 0.00000 -0.18500
v -0.00000 0.12000 -0.17500
v 0.13081 0.00000 -0.13081
v 0.12374 0.12000 -0.12374
v 0.16500 0.12000 0.00000
v 0.15500 2.05000 0.00000
v 0.11667 0.12000 0.11667
v 0.10960 2.05000 0.10960
v 0.00000 0.12000 0.16500
v 0.00000 2.05000 0.15500
v -0.11667 0.12000 0.11667
v -0.10960 2.05000 0.10960
v -0.16500 0.12000 0.00000
v -0.15500 2.05000 0.00000
v -0.11667 0.12000 -0.11667
v -0.10960 2.05000 -0.10960
v -0.00000 0.12000 -0.16500
v -0.00000 2.05000 -0.15500
v 0.11667 0.12000 -0.11667
v 0.10960 2.05000 -0.10960
v 0.16800 2.00000 0.00000
v 0.16800 2.12000 0.00000
v 0.14549 2.00000 0.08400
v 0.14549 2.12000 0.08400
v 0.08400 2.00000 0.14549
v 0.08400 2.12000 0.14549
v 0.00000 2.00000 0.16800
v 0.00000 2.12000 0.16800
v -0.08400 2.00000 0.14549
v -0.08400 2.12000 0.14549
v -0.14549 2.00000 0.08400
v -0.14549 2.12000 0.08400
v -0.16800 2.00000 0.00000
v -0.16800 2.12000 0.00000
v -0.14549 2.00000 -0.08400
v -0.14549 2.12000 -0.08400
v -0.08400 2.00000 -0.14549
v -0.08400 2.12000 -0.14549
v -0.00000 2.00000 -0.16800
v -0.00000 2.12000 -0.16800
v 0.08400 2.00000 -0.14549
v 0.08400 2.12000 -0.14549
v 0.14549 2.00000 -0.08400
v 0.14549 2.12000 -0.08400
v -0.01776 2.13873 0.00000
v -0.35776 3.26873 0.00000
v -0.03599 2.13324 -0.04596
v -0.37599 3.26324 -0.04596
v -0.08000 2.12000 -0.06500
v -0.42000 3.25000 -0.06500
v -0.12401 2.10676 -0.04596
v -0.46401 3.23676 -0.04596
v -0.14224 2.10127 -0.00000
v -0.48224 3.23127 -0.00000
v -0.12401 2.10676 0.04596
v -0.46401 3.23676 0.04596
v -0.08000 2.12000 0.06500
v -0.42000 3.25000 0.06500
v -0.03599 2.13324 0.04596
v -0.37599 3.26324 0.04596
v 0.14224 2.10127 0.00000
v 0.48224 3.23127 0.00000
v 0.12401 2.10676 -0.04596
v 0.46401 3.23676 -0.04596
v 0.08000 2.12000 -0.06500
v 0.42000 3.25000 -0.06500
v 0.03599 2.13324 -0.04596
v 0.37599 3.26324 -0.04596
v 0.01776 2.13873 -0.00000
v 0.35776 3.26873 -0.00000
v 0.03599 2.13324 0.04596
v 0.37599 3.26324 0.04596
v 0.08000 2.12000 0.06500
v 0.42000 3.25000 0.06500
v 0.12401 2.10676 0.04596
v 0.46401 3.23676 0.04596
v -0.42000 3.19000 0.00000
v 0.42000 3.19000 0.00000
v -0.42000 3.20757 -0.04243
v 0.42000 3.20757 -0.04243
v -0.42000 3.25000 -0.06000
v 0.42000 3.25000 -0.06000
v -0.42000 3.29243 -0.04243
v 0.42000 3.29243 -0.04243
v -0.42000 3.31000 -0.00000
v 0.42000 3.31000 -0.00000
v -0.42000 3.29243 0.04243
v 0.42000 3.29243 0.04243
v -0.42000 3.25000 0.06000
v 0.42000 3.25000 0.06000
v -0.42000 3.20757 0.04243
v 0.42000 3.20757 0.04243
v 1.28789 5.05379 0.00000
v 1.27287 5.32286 0.00000
v 1.26801 5.05268 -0.04808
v 1.25299 5.32175 -0.04808
v 1.22000 5.05000 -0.06800
v 1.20498 5.31907 -0.06800
v 1.17199 5.04732 -0.04808
v 1.15697 5.31639 -0.04808
v 1.15211 5.04621 -0.00000
v 1.13709 5.31528 -0.00000
v 1.17199 5.04732 0.04808
v 1.15697 5.31639 0.04808
v 1.22000 5.05000 0.06800
v 1.20498 5.31907 0.06800
v 1.26801 5.05268 0.04808
v 1.25299 5.32175 0.04808
v 1.27201 5.33048 0.00000
v 1.22732 5.59292 0.00000
v 1.25238 5.32714 -0.04808
v 1.20769 5.58958 -0.04808
v 1.20498 5.31907 -0.06800
v 1.16029 5.58151 -0.06800
v 1.15758 5.31100 -0.04808
v 1.11289 5.57344 -0.04808
v 1.13794 5.30765 -0.00000
v 1.09325 5.57009 -0.00000
v 1.15758 5.31100 0.04808
v 1.11289 5.57344 0.04808
v 1.20498 5.31907 0.06800
v 1.16029 5.58151 0.06800
v 1.25238 5.32714 0.04808
v 1.20769 5.58958 0.04808
v 1.22553 5.60068 0.00000
v 1.15227 5.85003 0.00000
v 1.20642 5.59506 -0.04808
v 1.13316 5.84442 -0.04808
v 1.16029 5.58151 -0.06800
v 1.08703 5.83086 -0.06800
v 1.11416 5.56796 -0.04808
v 1.04089 5.81731 -0.04808
v 1.09505 5.56234 -0.00000
v 1.02179 5.81170 -0.00000
v 1.11416 5.56796 0.04808
v 1.04089 5.81731 0.04808
v 1.16029 5.58151 0.06800
v 1.08703 5.83086 0.06800
v 1.20642 5.59506 0.04808
v 1.13316 5.84442 0.04808
v 1.14939 5.85797 0.00000
v 1.04936 6.08810 0.00000
v 1.13113 5.85003 -0.04808
v 1.03110 6.08016 -0.04808
v 1.08703 5.83086 -0.06800
v 0.98700 6.06099 -0.06800
v 1.04293 5.81170 -0.04808
v 0.94290 6.04182 -0.04808
v 1.02466 5.80376 -0.00000
v 0.92464 6.03388 -0.00000
v 1.04293 5.81170 0.04808
v 0.94290 6.04182 0.04808
v 1.08703 5.83086 0.06800
v 0.98700 6.06099 0.06800
v 1.13113 5.85003 0.04808
v 1.03110 6.08016 0.04808
v 1.04516 6.09622 0.00000
v 0.92083 6.30146 0.00000
v 1.02813 6.08590 -0.04808
v 0.90380 6.29114 -0.04808
v 0.98700 6.06099 -0.06800
v 0.86267 6.26622 -0.06800
v 0.94588 6.03608 -0.04808
v 0.82154 6.24131 -0.04808
v 0.92884 6.02576 -0.00000
v 0.80451 6.23099 -0.00000
v 0.94588 6.03608 0.04808
v 0.82154 6.24131 0.04808
v 0.98700 6.06099 0.06800
v 0.86267 6.26622 0.06800
v 1.02813 6.08590 0.04808
v 0.90380 6.29114 0.04808
v 0.91498 6.30967 0.00000
v 0.76941 6.48495 0.00000
v 0.89966 6.29694 -0.04808
v 0.75409 6.47223 -0.04808
v 0.86267 6.26622 -0.06800
v 0.71710 6.44151 -0.06800
v 0.82568 6.23550 -0.04808
v 0.68011 6.41079 -0.04808
v 0.81036 6.22278 -0.00000
v 0.66479 6.39806 -0.00000
v 0.82568 6.23550 0.04808
v 0.68011 6.41079 0.04808
v 0.86267 6.26622 0.06800
v 0.71710 6.44151 0.06800
v 0.89966 6.29694 0.04808
v 0.75409 6.47223 0.04808
v 0.76155 6.49297 0.00000
v 0.59832 6.63399 0.00000
v 0.74853 6.47789 -0.04808
v 0.58530 6.61892 -0.04808
v 0.71710 6.44151 -0.06800
v 0.55387 6.58253 -0.06800
v 0.68566 6.40512 -0.04808
v 0.52243 6.54615 -0.04808
v 0.67264 6.39005 -0.00000
v 0.50941 6.53108 -0.00000
v 0.68566 6.40512 0.04808
v 0.52243 6.54615 0.04808
v 0.71710 6.44151 0.06800
v 0.55387 6.58253 0.06800
v 0.74853 6.47789 0.04808
v 0.58530 6.61892 0.04808
v 0.58816 6.64125 0.00000
v 0.41129 6.74454 0.00000
v 0.57812 6.62405 -0.04808
v 0.40125 6.72734 -0.04808
v 0.55387 6.58253 -0.06800
v 0.37700 6.68582 -0.06800
v 0.52962 6.54101 -0.04808
v 0.35275 6.64430 -0.04808
v 0.51958 6.52381 -0.00000
v 0.34271 6.62710 -0.00000
v 0.52962 6.54101 0.04808
v 0.35275 6.64430 0.04808
v 0.55387 6.58253 0.06800
v 0.37700 6.68582 0.06800
v 0.57812 6.62405 0.04808
v 0.40125 6.72734 0.04808
v 0.39880 6.75023 0.00000
v 0.21265 6.81323 0.00000
v 0.39242 6.73136 -0.04808
v 0.20627 6.79437 -0.04808
v 0.37700 6.68582 -0.06800
v 0.19085 6.74882 -0.06800
v 0.36159 6.64027 -0.04808
v 0.17543 6.70328 -0.04808
v 0.35520 6.62141 -0.00000
v 0.16905 6.68441 -0.00000
v 0.36159 6.64027 0.04808
v 0.17543 6.70328 0.04808
v 0.37700 6.68582 0.06800
v 0.19085 6.74882 0.06800
v 0.39242 6.73136 0.04808
v 0.20627 6.79437 0.04808
v 0.19835 6.81641 0.00000
v 0.00750 6.83759 0.00000
v 0.19615 6.79661 -0.04808
v 0.00530 6.81779 -0.04808
v 0.19085 6.74882 -0.06800
v 0.00000 6.77000 -0.06800
v 0.18555 6.70103 -0.04808
v -0.00530 6.72221 -0.04808
v 0.18335 6.68124 -0.00000
v -0.00750 6.70241 -0.00000
v 0.18555 6.70103 0.04808
v -0.00530 6.72221 0.04808
v 0.19085 6.74882 0.06800
v 0.00000 6.77000 0.06800
v 0.19615 6.79661 0.04808
v 0.00530 6.81779 0.04808
v -0.00750 6.83759 0.00000
v -0.19835 6.81641 0.00000
v -0.00530 6.81779 -0.04808
v -0.19615 6.79661 -0.04808
v 0.00000 6.77000 -0.06800
v -0.19085 6.74882 -0.06800
v 0.00530 6.72221 -0.04808
v -0.18555 6.70103 -0.04808
v 0.00750 6.70241 -0.00000
v -0.18335 6.68124 -0.00000
v 0.00530 6.72221 0.04808
v -0.18555 6.70103 0.04808
v 0.00000 6.77000 0.06800
v -0.19085 6.74882 0.06800
v -0.00530 6.81779 0.04808
v -0.19615 6.79661 0.04808
v -0.21265 6.81323 0.00000
v -0.39880 6.75023 0.00000
v -0.20627 6.79437 -0.04808
v -0.39242 6.73136 -0.04808
v -0.19085 6.74882 -0.06800
v -0.37700 6.68582 -0.06800
v -0.17543 6.70328 -0.04808
v -0.36159 6.64027 -0.04808
v -0.16905 6.68441 -0.00000
v -0.35520 6.62141 -0.00000
v -0.17543 6.70328 0.04808
v -0.36159 6.64027 0.04808
v -0.19085 6.74882 0.06800
v -0.37700 6.68582 0.06800
v -0.20627 6.79437 0.04808
v -0.39242 6.73136 0.04808
v -0.41129 6.74454 0.00000
v -0.58816 6.64125 0.00000
v -0.40125 6.72734 -0.04808
v -0.57812 6.62405 -0.04808
v -0.37700 6.68582 -0.06800
v -0.55387 6.58253 -0.06800
v -0.35275 6.64430 -0.04808
v -0.52962 6.54101 -0.04808
v -0.34271 6.62710 -0.00000
v -0.51958 6.52381 -0.00000
v -0.35275 6.64430 0.04808
v -0.52962 6.54101 0.04808
v -0.37700 6.68582 0.06800
v -0.55387 6.58253 0.06800
v -0.40125 6.72734 0.04808
v -0.57812 6.62405 0.04808
v -0.59832 6.63399 0.00000
v -0.76155 6.49297 0.00000
v -0.58530 6.61892 -0.04808
v -0.74853 6.47789 -0.04808
v -0.55387 6.58253 -0.06800
v -0.71710 6.44151 -0.06800
v -0.52243 6.54615 -0.04808
v -0.68566 6.40512 -0.04808
v -0.50941 6.53108 -0.00000
v -0.67264 6.39005 -0.00000
v -0.52243 6.54615 0.04808
v -0.68566 6.40512 0.04808
v -0.55387 6.58253 0.06800
v -0.71710 6.44151 0.06800
v -0.58530 6.61892 0.04808
v -0.74853 6.47789 0.04808
v -0.76941 6.48495 0.00000
v -0.91498 6.30967 0.00000
v -0.75409 6.47223 -0.04808
v -0.89966 6.29694 -0.04808
v -0.71710 6.44151 -0.06800
v -0.86267 6.26622 -0.06800
v -0.68011 6.41079 -0.04808
v -0.82568 6.23550 -0.04808
v -0.66479 6.39806 -0.00000
v -0.81036 6.22278 -0.00000
v -0.68011 6.41079 0.04808
v -0.82568 6.23550 0.04808
v -0.71710 6.44151 0.06800
v -0.86267 6.26622 0.06800
v -0.75409 6.47223 0.04808
v -0.89966 6.29694 0.04808
v -0.92083 6.30146 0.00000
v -1.04516 6.09622 0.00000
v -0.90380 6.29114 -0.04808
v -1.02813 6.08590 -0.04808
v -0.86267 6.26622 -0.06800
v -0.98700 6.06099 -0.06800
v -0.82154 6.24131 -0.04808
v -0.94588 6.03608 -0.04808
v -0.80451 6.23099 -0.00000
v -0.92884 6.02576 -0.00000
v -0.82154 6.24131 0.04808
v -0.94588 6.03608 0.04808
v -0.86267 6.26622 0.06800
v -0.98700 6.06099 0.06800
v -0.90380 6.29114 0.04808
v -1.02813 6.08590 0.04808
v -1.04936 6.08810 0.00000
v -1.14939 5.85797 0.00000
v -1.03110 6.08016 -0.04808
v -1.13113 5.85003 -0.04808
v -0.98700 6.06099 -0.06800
v -1.08703 5.83086 -0.06800
v -0.94290 6.04182 -0.04808
v -1.04293 5.81170 -0.04808
v -0.92464 6.03388 -0.00000
v -1.02466 5.80376 -0.00000
v -0.94290 6.04182 0.04808
v -1.04293 5.81170 0.04808
v -0.98700 6.06099 0.06800
v -1.08703 5.83086 0.06800
v -1.03110 6.08016 0.04808
v -1.13113 5.85003 0.04808
v -1.15227 5.85003 0.00000
v -1.22553 5.60068 0.00000
v -1.13316 5.84442 -0.04808
v -1.20642 5.59506 -0.04808
v -1.08703 5.83086 -0.06800
v -1.16029 5.58151 -0.06800
v -1.04089 5.81731 -0.04808
v -1.11416 5.56796 -0.04808
v -1.02179 5.81170 -0.00000
v -1.09505 5.56234 -0.00000
v -1.04089 5.81731 0.04808
v -1.11416 5.56796 0.04808
v -1.08703 5.83086 0.06800
v -1.16029 5.58151 0.06800
v -1.13316 5.84442 0.04808
v -1.20642 5.59506 0.04808
v -1.22732 5.59292 0.00000
v -1.27201 5.33048 0.00000
v -1.20769 5.58958 -0.04808
v -1.25238 5.32714 -0.04808
v -1.16029 5.58151 -0.06800
v -1.20498 5.31907 -0.06800
v -1.11289 5.57344 -0.04808
v -1.15758 5.31100 -0.04808
v -1.09325 5.57009 -0.00000
v -1.13794 5.30765 -0.00000
v -1.11289 5.57344 0.04808
v -1.15758 5.31100 0.04808
v -1.16029 5.58151 0.06800
v -1.20498 5.31907 0.06800
v -1.20769 5.58958 0.04808
v -1.25238 5.32714 0.04808
v -1.27287 5.32286 0.00000
v -1.28789 5.05379 0.00000
v -1.25299 5.32175 -0.04808
v -1.26801 5.05268 -0.04808
v -1.20498 5.31907 -0.06800
v -1.22000 5.05000 -0.06800
v -1.15697 5.31639 -0.04808
v -1.17199 5.04732 -0.04808
v -1.13709 5.31528 -0.00000
v -1.15211 5.04621 -0.00000
v -1.15697 5.31639 0.04808
v -1.17199 5.04732 0.04808
v -1.20498 5.31907 0.06800
v -1.22000 5.05000 0.06800
v -1.25299 5.32175 0.04808
v -1.26801 5.05268 0.04808
v -1.28789 5.04621 0.00000
v -1.27287 4.77714 0.00000
v -1.26801 5.04732 -0.04808
v -1.25299 4.77825 -0.04808
v -1.22000 5.05000 -0.06800
v -1.20498 4.78093 -0.06800
v -1.17199 5.05268 -0.04808
v -1.15697 4.78361 -0.04808
v -1.15211 5.05379 -0.00000
v -1.13709 4.78472 -0.00000
v -1.17199 5.05268 0.04808
v -1.15697 4.78361 0.04808
v -1.22000 5.05000 0.06800
v -1.20498 4.78093 0.06800
v -1.26801 5.04732 0.04808
v -1.25299 4.77825 0.04808
v -1.27201 4.76952 0.00000
v -1.22732 4.50708 0.00000
v -1.25238 4.77286 -0.04808
v -1.20769 4.51042 -0.04808
v -1.20498 4.78093 -0.06800
v -1.16029 4.51849 -0.06800
v -1.15758 4.78900 -0.04808
v -1.11289 4.52656 -0.04808
v -1.13794 4.79235 -0.00000
v -1.09325 4.52991 -0.00000
v -1.15758 4.78900 0.04808
v -1.11289 4.52656 0.04808
v -1.20498 4.78093 0.06800
v -1.16029 4.51849 0.06800
v -1.25238 4.77286 0.04808
v -1.20769 4.51042 0.04808
v -1.22553 4.49932 0.00000
v -1.15227 4.24997 0.00000
v -1.20642 4.50494 -0.04808
v -1.13316 4.25558 -0.04808
v -1.16029 4.51849 -0.06800
v -1.08703 4.26914 -0.06800
v -1.11416 4.53204 -0.04808
v -1.04089 4.28269 -0.04808
v -1.09505 4.53766 -0.00000
v -1.02179 4.28830 -0.00000
v -1.11416 4.53204 0.04808
v -1.04089 4.28269 0.04808
v -1.16029 4.51849 0.06800
v -1.08703 4.26914 0.06800
v -1.20642 4.50494 0.04808
v -1.13316 4.25558 0.04808
v -1.14939 4.24203 0.00000
v -1.04936 4.01190 0.00000
v -1.13113 4.24997 -0.04808
v -1.03110 4.01984 -0.04808
v -1.08703 4.26914 -0.06800
v -0.98700 4.03901 -0.06800
v -1.04293 4.28830 -0.04808
v -0.94290 4.05818 -0.04808
v -1.02466 4.29624 -0.00000
v -0.92464 4.06612 -0.00000
v -1.04293 4.28830 0.04808
v -0.94290 4.05818 0.04808
v -1.08703 4.26914 0.06800
v -0.98700 4.03901 0.06800
v -1.13113 4.24997 0.04808
v -1.03110 4.01984 0.04808
v -1.04516 4.00378 0.00000
v -0.92083 3.79854 0.00000
v -1.02813 4.01410 -0.04808
v -0.90380 3.80886 -0.04808
v -0.98700 4.03901 -0.06800
v -0.86267 3.83378 -0.06800
v -0.94588 4.06392 -0.04808
v -0.82154 3.85869 -0.04808
v -0.92884 4.07424 -0.00000
v -0.80451 3.86901 -0.00000
v -0.94588 4.06392 0.04808
v -0.82154 3.85869 0.04808
v -0.98700 4.03901 0.06800
v -0.86267 3.83378 0.06800
v -1.02813 4.01410 0.04808
v -0.90380 3.80886 0.04808
v -0.91498 3.79033 0.00000
v -0.76941 3.61505 0.00000
v -0.89966 3.80306 -0.04808
v -0.75409 3.62777 -0.04808
v -0.86267 3.83378 -0.06800
v -0.71710 3.65849 -0.06800
v -0.82568 3.86450 -0.04808
v -0.68011 3.68921 -0.04808
v -0.81036 3.87722 -0.00000
v -0.66479 3.70194 -0.00000
v -0.82568 3.86450 0.04808
v -0.68011 3.68921 0.04808
v -0.86267 3.83378 0.06800
v -0.71710 3.65849 0.06800
v -0.89966 3.80306 0.04808
v -0.75409 3.62777 0.04808
v -0.76155 3.60703 0.00000
v -0.59832 3.46601 0.00000
v -0.74853 3.62211 -0.04808
v -0.58530 3.48108 -0.04808
v -0.71710 3.65849 -0.06800
v -0.55387 3.51747 -0.06800
v -0.68566 3.69488 -0.04808
v -0.52243 3.55385 -0.04808
v -0.67264 3.70995 -0.00000
v -0.50941 3.56892 -0.00000
v -0.68566 3.69488 0.04808
v -0.52243 3.55385 0.04808
v -0.71710 3.65849 0.06800
v -0.55387 3.51747 0.06800
v -0.74853 3.62211 0.04808
v -0.58530 3.48108 0.04808
v -0.58816 3.45875 0.00000
v -0.41129 3.35546 0.00000
v -0.57812 3.47595 -0.04808
v -0.40125 3.37266 -0.04808
v -0.55387 3.51747 -0.06800
v -0.37700 3.41418 -0.06800
v -0.52962 3.55899 -0.04808
v -0.35275 3.45570 -0.04808
v -0.51958 3.57619 -0.00000
v -0.34271 3.47290 -0.00000
v -0.52962 3.55899 0.04808
v -0.35275 3.45570 0.04808
v -0.55387 3.51747 0.06800
v -0.37700 3.41418 0.06800
v -0.57812 3.47595 0.04808
v -0.40125 3.37266 0.04808
v -0.39880 3.34977 0.00000
v -0.21265 3.28677 0.00000
v -0.39242 3.36864 -0.04808
v -0.20627 3.30563 -0.04808
v -0.37700 3.41418 -0.06800
v -0.19085 3.35118 -0.06800
v -0.36159 3.45973 -0.04808
v -0.17543 3.39672 -0.04808
v -0.35520 3.47859 -0.00000
v -0.16905 3.41559 -0.00000
v -0.36159 3.45973 0.04808
v -0.17543 3.39672 0.04808
v -0.37700 3.41418 0.06800
v -0.19085 3.35118 0.06800
v -0.39242 3.36864 0.04808
v -0.20627 3.30563 0.04808
v -0.19835 3.28359 0.00000
v -0.00750 3.26241 0.00000
v -0.19615 3.30339 -0.04808
v -0.00530 3.28221 -0.04808
v -0.19085 3.35118 -0.06800
v -0.00000 3.33000 -0.06800
v -0.18555 3.39897 -0.04808
v 0.00530 3.37779 -0.04808
v -0.18335 3.41876 -0.00000
v 0.00750 3.39759 -0.00000
v -0.18555 3.39897 0.04808
v 0.00530 3.37779 0.04808
v -0.19085 3.35118 0.06800
v -0.00000 3.33000 0.06800
v -0.19615 3.30339 0.04808
v -0.00530 3.28221 0.04808
v 0.00750 3.26241 0.00000
v 0.19835 3.28359 0.00000
v 0.00530 3.28221 -0.04808
v 0.19615 3.30339 -0.04808
v -0.00000 3.33000 -0.06800
v 0.19085 3.35118 -0.06800
v -0.00530 3.37779 -0.04808
v 0.18555 3.39897 -0.04808
v -0.00750 3.39759 -0.00000
v 0.18335 3.41876 -0.00000
v -0.00530 3.37779 0.04808
v 0.18555 3.39897 0.04808
v -0.00000 3.33000 0.06800
v 0.19085 3.35118 0.06800
v 0.00530 3.28221 0.04808
v 0.19615 3.30339 0.04808
v 0.21265 3.28677 0.00000
v 0.39880 3.34977 0.00000
v 0.20627 3.30563 -0.04808
v 0.39242 3.36864 -0.04808
v 0.19085 3.35118 -0.06800
v 0.37700 3.41418 -0.06800
v 0.17543 3.39672 -0.04808
v 0.36159 3.45973 -0.04808
v 0.16905 3.41559 -0.00000
v 0.35520 3.47859 -0.00000
v 0.17543 3.39672 0.04808
v 0.36159 3.45973 0.04808
v 0.19085 3.35118 0.06800
v 0.37700 3.41418 0.06800
v 0.20627 3.30563 0.04808
v 0.39242 3.36864 0.04808
v 0.41129 3.35546 0.00000
v 0.58816 3.45875 0.00000
v 0.40125 3.37266 -0.04808
v 0.57812 3.47595 -0.04808
v 0.37700 3.41418 -0.06800
v 0.55387 3.51747 -0.06800
v 0.35275 3.45570 -0.04808
v 0.52962 3.55899 -0.04808
v 0.34271 3.47290 -0.00000
v 0.51958 3.57619 -0.00000
v 0.35275 3.45570 0.04808
v 0.52962 3.55899 0.04808
v 0.37700 3.41418 0.06800
v 0.55387 3.51747 0.06800
v 0.40125 3.37266 0.04808
v 0.57812 3.47595 0.04808
v 0.59832 3.46601 0.00000
v 0.76155 3.60703 0.00000
v 0.58530 3.48108 -0.04808
v 0.74853 3.62211 -0.04808
v 0.55387 3.51747 -0.06800
v 0.71710 3.65849 -0.06800
v 0.52243 3.55385 -0.04808
v 0.68566 3.69488 -0.04808
v 0.50941 3.56892 -0.00000
v 0.67264 3.70995 -0.00000
v 0.52243 3.55385 0.04808
v 0.68566 3.69488 0.04808
v 0.55387 3.51747 0.06800
v 0.71710 3.65849 0.06800
v 0.58530 3.48108 0.04808
v 0.74853 3.62211 0.04808
v 0.76941 3.61505 0.00000
v 0.91498 3.79033 0.00000
v 0.75409 3.62777 -0.04808
v 0.89966 3.80306 -0.04808
v 0.71710 3.65849 -0.06800
v 0.86267 3.83378 -0.06800
v 0.68011 3.68921 -0.04808
v 0.82568 3.86450 -0.04808
v 0.66479 3.70194 -0.00000
v 0.81036 3.87722 -0.00000
v 0.68011 3.68921 0.04808
v 0.82568 3.86450 0.04808
v 0.71710 3.65849 0.06800
v 0.86267 3.83378 0.06800
v 0.75409 3.62777 0.04808
v 0.89966 3.80306 0.04808
v 0.92083 3.79854 0.00000
v 1.04516 4.00378 0.00000
v 0.90380 3.80886 -0.04808
v 1.02813 4.01410 -0.04808
v 0.86267 3.83378 -0.06800
v 0.98700 4.03901 -0.06800
v 0.82154 3.85869 -0.04808
v 0.94588 4.06392 -0.04808
v 0.80451 3.86901 -0.00000
v 0.92884 4.07424 -0.00000
v 0.82154 3.85869 0.04808
v 0.94588 4.06392 0.04808
v 0.86267 3.83378 0.06800
v 0.98700 4.03901 0.06800
v 0.90380 3.80886 0.04808
v 1.02813 4.01410 0.04808
v 1.04936 4.01190 0.00000
v 1.14939 4.24203 0.00000
v 1.03110 4.01984 -0.04808
v 1.13113 4.24997 -0.04808
v 0.98700 4.03901 -0.06800
v 1.08703 4.26914 -0.06800
v 0.94290 4.05818 -0.04808
v 1.04293 4.28830 -0.04808
v 0.92464 4.06612 -0.00000
v 1.02466 4.29624 -0.00000
v 0.94290 4.05818 0.04808
v 1.04293 4.28830 0.04808
v 0.98700 4.03901 0.06800
v 1.08703 4.26914 0.06800
v 1.03110 4.01984 0.04808
v 1.13113 4.24997 0.04808
v 1.15227 4.24997 0.00000
v 1.22553 4.49932 0.00000
v 1.13316 4.25558 -0.04808
v 1.20642 4.50494 -0.04808
v 1.08703 4.26914 -0.06800
v 1.16029 4.51849 -0.06800
v 1.04089 4.28269 -0.04808
v 1.11416 4.53204 -0.04808
v 1.02179 4.28830 -0.00000
v 1.09505 4.53766 -0.00000
v 1.04089 4.28269 0.04808
v 1.11416 4.53204 0.04808
v 1.08703 4.26914 0.06800
v 1.16029 4.51849 0.06800
v 1.13316 4.25558 0.04808
v 1.20642 4.50494 0.04808
v 1.22732 4.50708 0.00000
v 1.27201 4.76952 0.00000
v 1.20769 4.51042 -0.04808
v 1.25238 4.77286 -0.04808
v 1.16029 4.51849 -0.06800
v 1.20498 4.78093 -0.06800
v 1.11289 4.52656 -0.04808
v 1.15758 4.78900 -0.04808
v 1.09325 4.52991 -0.00000
v 1.13794 4.79235 -0.00000
v 1.11289 4.52656 0.04808
v 1.15758 4.78900 0.04808
v 1.16029 4.51849 0.06800
v 1.20498 4.78093 0.06800
v 1.20769 4.51042 0.04808
v 1.25238 4.77286 0.04808
v 1.27287 4.77714 0.00000
v 1.28789 5.04621 0.00000
v 1.25299 4.77825 -0.04808
v 1.26801 5.04732 -0.04808
v 1.20498 4.78093 -0.06800
v 1.22000 5.05000 -0.06800
v 1.15697 4.78361 -0.04808
v 1.17199 5.05268 -0.04808
v 1.13709 4.78472 -0.00000
v 1.15211 5.05379 -0.00000
v 1.15697 4.78361 0.04808
v 1.17199 5.05268 0.04808
v 1.20498 4.78093 0.06800
v 1.22000 5.05000 0.06800
v 1.25299 4.77825 0.04808
v 1.26801 5.04732 0.04808
v 0.76822 6.50068 0.00000
v 0.60499 6.64171 0.00000
v 0.74266 6.47110 -0.06772
v 0.57943 6.61212 -0.06772
v 0.69154 6.41192 -0.06772
v 0.52831 6.55294 -0.06772
v 0.66597 6.38233 -0.00000
v 0.50274 6.52336 -0.00000
v 0.69154 6.41192 0.06772
v 0.52831 6.55294 0.06772
v 0.74266 6.47110 0.06772
v 0.57943 6.61212 0.06772
v 0.59330 6.65006 0.00000
v 0.41644 6.75335 0.00000
v 0.57359 6.61630 -0.06772
v 0.39672 6.71958 -0.06772
v 0.53415 6.54877 -0.06772
v 0.35728 6.65205 -0.06772
v 0.51443 6.51500 -0.00000
v 0.33757 6.61829 -0.00000
v 0.53415 6.54877 0.06772
v 0.35728 6.65205 0.06772
v 0.57359 6.61630 0.06772
v 0.39672 6.71958 0.06772
v 0.40207 6.75989 0.00000
v 0.21592 6.82290 0.00000
v 0.38954 6.72285 -0.06772
v 0.20339 6.78586 -0.06772
v 0.36447 6.64878 -0.06772
v 0.17831 6.71179 -0.06772
v 0.35193 6.61175 -0.00000
v 0.16578 6.67475 -0.00000
v 0.36447 6.64878 0.06772
v 0.17831 6.71179 0.06772
v 0.38954 6.72285 0.06772
v 0.20339 6.78586 0.06772
v 0.19947 6.82655 0.00000
v 0.00862 6.84772 0.00000
v 0.19516 6.78769 -0.06772
v 0.00431 6.80886 -0.06772
v 0.18654 6.70996 -0.06772
v -0.00431 6.73114 -0.06772
v 0.18223 6.67110 -0.00000
v -0.00862 6.69228 -0.00000
v 0.18654 6.70996 0.06772
v -0.00431 6.73114 0.06772
v 0.19516 6.78769 0.06772
v 0.00431 6.80886 0.06772
v -0.00862 6.84772 0.00000
v -0.19947 6.82655 0.00000
v -0.00431 6.80886 -0.06772
v -0.19516 6.78769 -0.06772
v 0.00431 6.73114 -0.06772
v -0.18654 6.70996 -0.06772
v 0.00862 6.69228 -0.00000
v -0.18223 6.67110 -0.00000
v 0.00431 6.73114 0.06772
v -0.18654 6.70996 0.06772
v -0.00431 6.80886 0.06772
v -0.19516 6.78769 0.06772
v -0.21592 6.82290 0.00000
v -0.40207 6.75989 0.00000
v -0.20339 6.78586 -0.06772
v -0.38954 6.72285 -0.06772
v -0.17831 6.71179 -0.06772
v -0.36447 6.64878 -0.06772
v -0.16578 6.67475 -0.00000
v -0.35193 6.61175 -0.00000
v -0.17831 6.71179 0.06772
v -0.36447 6.64878 0.06772
v -0.20339 6.78586 0.06772
v -0.38954 6.72285 0.06772
v -0.41644 6.75335 0.00000
v -0.59330 6.65006 0.00000
v -0.39672 6.71958 -0.06772
v -0.57359 6.61630 -0.06772
v -0.35728 6.65205 -0.06772
v -0.53415 6.54877 -0.06772
v -0.33757 6.61829 -0.00000
v -0.51443 6.51500 -0.00000
v -0.35728 6.65205 0.06772
v -0.53415 6.54877 0.06772
v -0.39672 6.71958 0.06772
v -0.57359 6.61630 0.06772
v -0.60499 6.64171 0.00000
v -0.76822 6.50068 0.00000
v -0.57943 6.61212 -0.06772
v -0.74266 6.47110 -0.06772
v -0.52831 6.55294 -0.06772
v -0.69154 6.41192 -0.06772
v -0.50274 6.52336 -0.00000
v -0.66597 6.38233 -0.00000
v -0.52831 6.55294 0.06772
v -0.69154 6.41192 0.06772
v -0.57943 6.61212 0.06772
v -0.74266 6.47110 0.06772
v -0.97462 4.09354 0.00000
v -0.97462 6.00646 0.00000
v -0.98362 4.09354 -0.00900
v -0.98362 6.00646 -0.00900
v -0.99262 4.09354 -0.00000
v -0.99262 6.00646 -0.00000
v -0.98362 4.09354 0.00900
v -0.98362 6.00646 0.00900
v -0.84347 3.89340 0.00000
v -0.84347 6.20660 0.00000
v -0.85247 3.89340 -0.00900
v -0.85247 6.20660 -0.00900
v -0.86147 3.89340 -0.00000
v -0.86147 6.20660 -0.00000
v -0.85247 3.89340 0.00900
v -0.85247 6.20660 0.00900
v -0.71232 3.74607 0.00000
v -0.71232 6.35393 0.00000
v -0.72132 3.74607 -0.00900
v -0.72132 6.35393 -0.00900
v -0.73033 3.74607 -0.00000
v -0.73033 6.35393 -0.00000
v -0.72132 3.74607 0.00900
v -0.72132 6.35393 0.00900
v -0.58117 3.63497 0.00000
v -0.58117 6.46503 0.00000
v -0.59018 3.63497 -0.00900
v -0.59018 6.46503 -0.00900
v -0.59918 3.63497 -0.00000
v -0.59918 6.46503 -0.00000
v -0.59018 3.63497 0.00900
v -0.59018 6.46503 0.00900
v -0.45002 3.55201 0.00000
v -0.45002 6.54799 0.00000
v -0.45902 3.55201 -0.00900
v -0.45902 6.54799 -0.00900
v -0.46802 3.55201 -0.00000
v -0.46802 6.54799 -0.00000
v -0.45902 3.55201 0.00900
v -0.45902 6.54799 0.00900
v -0.31887 3.49268 0.00000
v -0.31887 6.60732 0.00000
v -0.32787 3.49268 -0.00900
v -0.32787 6.60732 -0.00900
v -0.33687 3.49268 -0.00000
v -0.33687 6.60732 -0.00000
v -0.32787 3.49268 0.00900
v -0.32787 6.60732 0.00900
v -0.18773 3.45436 0.00000
v -0.18773 6.64564 0.00000
v -0.19673 3.45436 -0.00900
v -0.19673 6.64564 -0.00900
v -0.20573 3.45436 -0.00000
v -0.20573 6.64564 -0.00000
v -0.19673 3.45436 0.00900
v -0.19673 6.64564 0.00900
v -0.05657 3.43554 0.00000
v -0.05657 6.66446 0.00000
v -0.06557 3.43554 -0.00900
v -0.06557 6.66446 -0.00900
v -0.07457 3.43554 -0.00000
v -0.07457 6.66446 -0.00000
v -0.06557 3.43554 0.00900
v -0.06557 6.66446 0.00900
v 0.07457 3.43554 0.00000
v 0.07457 6.66446 0.00000
v 0.06557 3.43554 -0.00900
v 0.06557 6.66446 -0.00900
v 0.05657 3.43554 -0.00000
v 0.05657 6.66446 -0.00000
v 0.06557 3.43554 0.00900
v 0.06557 6.66446 0.00900
v 0.20573 3.45436 0.00000
v 0.20573 6.64564 0.00000
v 0.19673 3.45436 -0.00900
v 0.19673 6.64564 -0.00900
v 0.18773 3.45436 -0.00000
v 0.18773 6.64564 -0.00000
v 0.19673 3.45436 0.00900
v 0.19673 6.64564 0.00900
v 0.33687 3.49268 0.00000
v 0.33687 6.60732 0.00000
v 0.32787 3.49268 -0.00900
v 0.32787 6.60732 -0.00900
v 0.31887 3.49268 -0.00000
v 0.31887 6.60732 -0.00000
v 0.32787 3.49268 0.00900
v 0.32787 6.60732 0.00900
v 0.46802 3.55201 0.00000
v 0.46802 6.54799 0.00000
v 0.45902 3.55201 -0.00900
v 0.45902 6.54799 -0.00900
v 0.45002 3.55201 -0.00000
v 0.45002 6.54799 -0.00000
v 0.45902 3.55201 0.00900
v 0.45902 6.54799 0.00900
v 0.59918 3.63497 0.00000
v 0.59918 6.46503 0.00000
v 0.59018 3.63497 -0.00900
v 0.59018 6.46503 -0.00900
v 0.58117 3.63497 -0.00000
v 0.58117 6.46503 -0.00000
v 0.59018 3.63497 0.00900
v 0.59018 6.46503 0.00900
v 0.73033 3.74607 0.00000
v 0.73033 6.35393 0.00000
v 0.72132 3.74607 -0.00900
v 0.72132 6.35393 -0.00900
v 0.71232 3.74607 -0.00000
v 0.71232 6.35393 -0.00000
v 0.72132 3.74607 0.00900
v 0.72132 6.35393 0.00900
v 0.86147 3.89340 0.00000
v 0.86147 6.20660 0.00000
v 0.85247 3.89340 -0.00900
v 0.85247 6.20660 -0.00900
v 0.84347 3.89340 -0.00000
v 0.84347 6.20660 -0.00000
v 0.85247 3.89340 0.00900
v 0.85247 6.20660 0.00900
v 0.99262 4.09354 0.00000
v 0.99262 6.00646 0.00000
v 0.98362 4.09354 -0.00900
v 0.98362 6.00646 -0.00900
v 0.97462 4.09354 -0.00000
v 0.97462 6.00646 -0.00000
v 0.98362 4.09354 0.00900
v 0.98362 6.00646 0.00900
v -0.63331 3.60706 0.00000
v 0.63331 3.60706 0.00000
v -0.63331 3.61606 -0.00900
v 0.63331 3.61606 -0.00900
v -0.63331 3.62506 -0.00000
v 0.63331 3.62506 -0.00000
v -0.63331 3.61606 0.00900
v 0.63331 3.61606 0.00900
v -0.77002 3.76639 0.00000
v 0.77002 3.76639 0.00000
v -0.77002 3.77539 -0.00900
v 0.77002 3.77539 -0.00900
v -0.77002 3.78439 -0.00000
v 0.77002 3.78439 -0.00000
v -0.77002 3.77539 0.00900
v 0.77002 3.77539 0.00900
v -0.87304 3.92572 0.00000
v 0.87304 3.92572 0.00000
v -0.87304 3.93472 -0.00900
v 0.87304 3.93472 -0.00900
v -0.87304 3.94372 -0.00000
v 0.87304 3.94372 -0.00000
v -0.87304 3.93472 0.00900
v 0.87304 3.93472 0.00900
v -0.95336 4.08504 0.00000
v 0.95336 4.08504 0.00000
v -0.95336 4.09404 -0.00900
v 0.95336 4.09404 -0.00900
v -0.95336 4.10304 -0.00000
v 0.95336 4.10304 -0.00000
v -0.95336 4.09404 0.00900
v 0.95336 4.09404 0.00900
v -1.01638 4.24437 0.00000
v 1.01638 4.24437 0.00000
v -1.01638 4.25337 -0.00900
v 1.01638 4.25337 -0.00900
v -1.01638 4.26237 -0.00000
v 1.01638 4.26237 -0.00000
v -1.01638 4.25337 0.00900
v 1.01638 4.25337 0.00900
v -1.06517 4.40369 0.00000
v 1.06517 4.40369 0.00000
v -1.06517 4.41269 -0.00900
v 1.06517 4.41269 -0.00900
v -1.06517 4.42169 -0.00000
v 1.06517 4.42169 -0.00000
v -1.06517 4.41269 0.00900
v 1.06517 4.41269 0.00900
v -1.10163 4.56302 0.00000
v 1.10163 4.56302 0.00000
v -1.10163 4.57202 -0.00900
v 1.10163 4.57202 -0.00900
v -1.10163 4.58102 -0.00000
v 1.10163 4.58102 -0.00000
v -1.10163 4.57202 0.00900
v 1.10163 4.57202 0.00900
v -1.12695 4.72235 0.00000
v 1.12695 4.72235 0.00000
v -1.12695 4.73135 -0.00900
v 1.12695 4.73135 -0.00900
v -1.12695 4.74035 -0.00000
v 1.12695 4.74035 -0.00000
v -1.12695 4.73135 0.00900
v 1.12695 4.73135 0.00900
v -1.14187 4.88167 0.00000
v 1.14187 4.88167 0.00000
v -1.14187 4.89067 -0.00900
v 1.14187 4.89067 -0.00900
v -1.14187 4.89967 -0.00000
v 1.14187 4.89967 -0.00000
v -1.14187 4.89067 0.00900
v 1.14187 4.89067 0.00900
v -1.14680 5.04100 0.00000
v 1.14680 5.04100 0.00000
v -1.14680 5.05000 -0.00900
v 1.14680 5.05000 -0.00900
v -1.14680 5.05900 -0.00000
v 1.14680 5.05900 -0.00000
v -1.14680 5.05000 0.00900
v 1.14680 5.05000 0.00900
v -1.14187 5.20033 0.00000
v 1.14187 5.20033 0.00000
v -1.14187 5.20933 -0.00900
v 1.14187 5.20933 -0.00900
v -1.14187 5.21833 -0.00000
v 1.14187 5.21833 -0.00000
v -1.14187 5.20933 0.00900
v 1.14187 5.20933 0.00900
v -1.12695 5.35965 0.00000
v 1.12695 5.35965 0.00000
v -1.12695 5.36865 -0.00900
v 1.12695 5.36865 -0.00900
v -1.12695 5.37765 -0.00000
v 1.12695 5.37765 -0.00000
v -1.12695 5.36865 0.00900
v 1.12695 5.36865 0.00900
v -1.10163 5.51898 0.00000
v 1.10163 5.51898 0.00000
v -1.10163 5.52798 -0.00900
v 1.10163 5.52798 -0.00900
v -1.10163 5.53698 -0.00000
v 1.10163 5.53698 -0.00000
v -1.10163 5.52798 0.00900
v 1.10163 5.52798 0.00900
v -1.06517 5.67831 0.00000
v 1.06517 5.67831 0.00000
v -1.06517 5.68731 -0.00900
v 1.06517 5.68731 -0.00900
v -1.06517 5.69631 -0.00000
v 1.06517 5.69631 -0.00000
v -1.06517 5.68731 0.00900
v 1.06517 5.68731 0.00900
v -1.01638 5.83763 0.00000
v 1.01638 5.83763 0.00000
v -1.01638 5.84663 -0.00900
v 1.01638 5.84663 -0.00900
v -1.01638 5.85563 -0.00000
v 1.01638 5.85563 -0.00000
v -1.01638 5.84663 0.00900
v 1.01638 5.84663 0.00900
v -0.95336 5.99696 0.00000
v 0.95336 5.99696 0.00000
v -0.95336 6.00596 -0.00900
v 0.95336 6.00596 -0.00900
v -0.95336 6.01496 -0.00000
v 0.95336 6.01496 -0.00000
v -0.95336 6.00596 0.00900
v 0.95336 6.00596 0.00900
v -0.87304 6.15628 0.00000
v 0.87304 6.15628 0.00000
v -0.87304 6.16528 -0.00900
v 0.87304 6.16528 -0.00900
v -0.87304 6.17428 -0.00000
v 0.87304 6.17428 -0.00000
v -0.87304 6.16528 0.00900
v 0.87304 6.16528 0.00900
v -0.77002 6.31561 0.00000
v 0.77002 6.31561 0.00000
v -0.77002 6.32461 -0.00900
v 0.77002 6.32461 -0.00900
v -0.77002 6.33361 -0.00000
v 0.77002 6.33361 -0.00000
v -0.77002 6.32461 0.00900
v 0.77002 6.32461 0.00900
v -0.63331 6.47494 0.00000
v 0.63331 6.47494 0.00000
v -0.63331 6.48394 -0.00900
v 0.63331 6.48394 -0.00900
v -0.63331 6.49294 -0.00000
v 0.63331 6.49294 -0.00000
v -0.63331 6.48394 0.00900
v 0.63331 6.48394 0.00900

s 1
f 1 3 2
f 1 4 3
f 1 5 4
f 1 6 5
f 1 7 6
f 1 8 7
f 1 9 8
f 1 2 9
f 10 12 13
f 10 13 11
f 12 14 15
f 12 15 13
f 14 16 17
f 14 17 15
f 16 18 19
f 16 19 17
f 18 20 21
f 18 21 19
f 20 22 23
f 20 23 21
f 22 24 25
f 22 25 23
f 24 10 11
f 24 11 25
f 26 28 29
f 26 29 27
f 28 30 31
f 28 31 29
f 30 32 33
f 30 33 31
f 32 34 35
f 32 35 33
f 34 36 37
f 34 37 35
f 36 38 39
f 36 39 37
f 38 40 41
f 38 41 39
f 40 26 27
f 40 27 41
f 42 44 45
f 42 45 43
f 44 46 47
f 44 47 45
f 46 48 49
f 46 49 47
f 48 50 51
f 48 51 49
f 50 52 53
f 50 53 51
f 52 54 55
f 52 55 53
f 54 56 57
f 54 57 55
f 56 58 59
f 56 59 57
f 58 60 61
f 58 61 59
f 60 62 63
f 60 63 61
f 62 64 65
f 62 65 63
f 64 42 43
f 64 43 65
f 66 68 69
f 66 69 67
f 68 70 71
f 68 71 69
f 70 72 73
f 70 73 71
f 72 74 75
f 72 75 73
f 74 76 77
f 74 77 75
f 76 78 79
f 76 79 77
f 78 80 81
f 78 81 79
f 80 66 67
f 80 67 81
f 82 84 85
f 82 85 83
f 84 86 87
f 84 87 85
f 86 88 89
f 86 89 87
f 88 90 91
f 88 91 89
f 90 92 93
f 90 93 91
f 92 94 95
f 92 95 93
f 94 96 97
f 94 97 95
f 96 82 83
f 96 83 97
f 98 100 101
f 98 101 99
f 100 102 103
f 100 103 101
f 102 104 105
f 102 105 103
f 104 106 107
f 104 107 105
f 106 108 109
f 106 109 107
f 108 110 111
f 108 111 109
f 110 112 113
f 110 113 111
f 112 98 99
f 112 99 113
f 114 116 117
f 114 117 115
f 116 118 119
f 116 119 117
f 118 120 121
f 118 121 119
f 120 122 123
f 120 123 121
f 122 124 125
f 122 125 123
f 124 126 127
f 124 127 125
f 126 128 129
f 126 129 127
f 128 114 115
f 128 115 129
f 130 132 133
f 130 133 131
f 132 134 135
f 132 135 133
f 134 136 137
f 134 137 135
f 136 138 139
f 136 139 137
f 138 140 141
f 138 141 139
f 140 142 143
f 140 143 141
f 142 144 145
f 142 145 143
f 144 130 131
f 144 131 145
f 146 148 149
f 146 149 147
f 148 150 151
f 148 151 149
f 150 152 153
f 150 153 151
f 152 154 155
f 152 155 153
f 154 156 157
f 154 157 155
f 156 158 159
f 156 159 157
f 158 160 161
f 158 161 159
f 160 146 147
f 160 147 161
f 162 164 165
f 162 165 163
f 164 166 167
f 164 167 165
f 166 168 169
f 166 169 167
f 168 170 171
f 168 171 169
f 170 172 173
f 170 173 171
f 172 174 175
f 172 175 173
f 174 176 177
f 174 177 175
f 176 162 163
f 176 163 177
f 178 180 181
f 178 181 179
f 180 182 183
f 180 183 181
f 182 184 185
f 182 185 183
f 184 186 187
f 184 187 185
f 186 188 189
f 186 189 187
f 188 190 191
f 188 191 189
f 190 192 193
f 190 193 191
f 192 178 179
f 192 179 193
f 194 196 197
f 194 197 195
f 196 198 199
f 196 199 197
f 198 200 201
f 198 201 199
f 200 202 203
f 200 203 201
f 202 204 205
f 202 205 203
f 204 206 207
f 204 207 205
f 206 208 209
f 206 209 207
f 208 194 195
f 208 195 209
f 210 212 213
f 210 213 211
f 212 214 215
f 212 215 213
f 214 216 217
f 214 217 215
f 216 218 219
f 216 219 217
f 218 220 221
f 218 221 219
f 220 222 223
f 220 223 221
f 222 224 225
f 222 225 223
f 224 210 211
f 224 211 225
f 226 228 229
f 226 229 227
f 228 230 231
f 228 231 229
f 230 232 233
f 230 233 231
f 232 234 235
f 232 235 233
f 234 236 237
f 234 237 235
f 236 238 239
f 236 239 237
f 238 240 241
f 238 241 239
f 240 226 227
f 240 227 241
f 242 244 245
f 242 245 243
f 244 246 247
f 244 247 245
f 246 248 249
f 246 249 247
f 248 250 251
f 248 251 249
f 250 252 253
f 250 253 251
f 252 254 255
f 252 255 253
f 254 256 257
f 254 257 255
f 256 242 243
f 256 243 257
f 258 260 261
f 258 261 259
f 260 262 263
f 260 263 261
f 262 264 265
f 262 265 263
f 264 266 267
f 264 267 265
f 266 268 269
f 266 269 267
f 268 270 271
f 268 271 269
f 270 272 273
f 270 273 271
f 272 258 259
f 272 259 273
f 274 276 277
f 274 277 275
f 276 278 279
f 276 279 277
f 278 280 281
f 278 281 279
f 280 282 283
f 280 283 281
f 282 284 285
f 282 285 283
f 284 286 287
f 284 287 285
f 286 288 289
f 286 289 287
f 288 274 275
f 288 275 289
f 290 292 293
f 290 293 291
f 292 294 295
f 292 295 293
f 294 296 297
f 294 297 295
f 296 298 299
f 296 299 297
f 298 300 301
f 298 301 299
f 300 302 303
f 300 303 301
f 302 304 305
f 302 305 303
f 304 290 291
f 304 291 305
f 306 308 309
f 306 309 307
f 308 310 311
f 308 311 309
f 310 312 313
f 310 313 311
f 312 314 315
f 312 315 313
f 314 316 317
f 314 317 315
f 316 318 319
f 316 319 317
f 318 320 321
f 318 321 319
f 320 306 307
f 320 307 321
f 322 324 325
f 322 325 323
f 324 326 327
f 324 327 325
f 326 328 329
f 326 329 327
f 328 330 331
f 328 331 329
f 330 332 333
f 330 333 331
f 332 334 335
f 332 335 333
f 334 336 337
f 334 337 335
f 336 322 323
f 336 323 337
f 338 340 341
f 338 341 339
f 340 342 343
f 340 343 341
f 342 344 345
f 342 345 343
f 344 346 347
f 344 347 345
f 346 348 349
f 346 349 347
f 348 350 351
f 348 351 349
f 350 352 353
f 350 353 351
f 352 338 339
f 352 339 353
f 354 356 357
f 354 357 355
f 356 358 359
f 356 359 357
f 358 360 361
f 358 361 359
f 360 362 363
f 360 363 361
f 362 364 365
f 362 365 363
f 364 366 367
f 364 367 365
f 366 368 369
f 366 369 367
f 368 354 355
f 368 355 369
f 370 372 373
f 370 373 371
f 372 374 375
f 372 375 373
f 374 376 377
f 374 377 375
f 376 378 379
f 376 379 377
f 378 380 381
f 378 381 379
f 380 382 383
f 380 383 381
f 382 384 385
f 382 385 383
f 384 370 371
f 384 371 385
f 386 388 389
f 386 389 387
f 388 390 391
f 388 391 389
f 390 392 393
f 390 393 391
f 392 394 395
f 392 395 393
f 394 396 397
f 394 397 395
f 396 398 399
f 396 399 397
f 398 400 401
f 398 401 399
f 400 386 387
f 400 387 401
f 402 404 405
f 402 405 403
f 404 406 407
f 404 407 405
f 406 408 409
f 406 409 407
f 408 410 411
f 408 411 409
f 410 412 413
f 410 413 411
f 412 414 415
f 412 415 413
f 414 416 417
f 414 417 415
f 416 402 403
f 416 403 417
f 418 420 421
f 418 421 419
f 420 422 423
f 420 423 421
f 422 424 425
f 422 425 423
f 424 426 427
f 424 427 425
f 426 428 429
f 426 429 427
f 428 430 431
f 428 431 429
f 430 432 433
f 430 433 431
f 432 418 419
f 432 419 433
f 434 436 437
f 434 437 435
f 436 438 439
f 436 439 437
f 438 440 441
f 438 441 439
f 440 442 443
f 440 443 441
f 442 444 445
f 442 445 443
f 444 446 447
f 444 447 445
f 446 448 449
f 446 449 447
f 448 434 435
f 448 435 449
f 450 452 453
f 450 453 451
f 452 454 455
f 452 455 453
f 454 456 457
f 454 457 455
f 456 458 459
f 456 459 457
f 458 460 461
f 458 461 459
f 460 462 463
f 460 463 461
f 462 464 465
f 462 465 463
f 464 450 451
f 464 451 465
f 466 468 469
f 466 469 467
f 468 470 471
f 468 471 469
f 470 472 473
f 470 473 471
f 472 474 475
f 472 475 473
f 474 476 477
f 474 477 475
f 476 478 479
f 476 479 477
f 478 480 481
f 478 481 479
f 480 466 467
f 480 467 481
f 482 484 485
f 482 485 483
f 484 486 487
f 484 487 485
f 486 488 489
f 486 489 487
f 488 490 491
f 488 491 489
f 490 492 493
f 490 493 491
f 492 494 495
f 492 495 493
f 494 496 497
f 494 497 495
f 496 482 483
f 496 483 497
f 498 500 501
f 498 501 499
f 500 502 503
f 500 503 501
f 502 504 505
f 502 505 503
f 504 506 507
f 504 507 505
f 506 508 509
f 506 509 507
f 508 510 511
f 508 511 509
f 510 512 513
f 510 513 511
f 512 498 499
f 512 499 513
f 514 516 517
f 514 517 515
f 516 518 519
f 516 519 517
f 518 520 521
f 518 521 519
f 520 522 523
f 520 523 521
f 522 524 525
f 522 525 523
f 524 526 527
f 524 527 525
f 526 528 529
f 526 529 527
f 528 514 515
f 528 515 529
f 530 532 533
f 530 533 531
f 532 534 535
f 532 535 533
f 534 536 537
f 534 537 535
f 536 538 539
f 536 539 537
f 538 540 541
f 538 541 539
f 540 542 543
f 540 543 541
f 542 544 545
f 542 545 543
f 544 530 531
f 544 531 545
f 546 548 549
f 546 549 547
f 548 550 551
f 548 551 549
f 550 552 553
f 550 553 551
f 552 554 555
f 552 555 553
f 554 556 557
f 554 557 555
f 556 558 559
f 556 559 557
f 558 560 561
f 558 561 559
f 560 546 547
f 560 547 561
f 562 564 565
f 562 565 563
f 564 566 567
f 564 567 565
f 566 568 569
f 566 569 567
f 568 570 571
f 568 571 569
f 570 572 573
f 570 573 571
f 572 574 575
f 572 575 573
f 574 576 577
f 574 577 575
f 576 562 563
f 576 563 577
f 578 580 581
f 578 581 579
f 580 582 583
f 580 583 581
f 582 584 585
f 582 585 583
f 584 586 587
f 584 587 585
f 586 588 589
f 586 589 587
f 588 590 591
f 588 591 589
f 590 592 593
f 590 593 591
f 592 578 579
f 592 579 593
f 594 596 597
f 594 597 595
f 596 598 599
f 596 599 597
f 598 600 601
f 598 601 599
f 600 602 603
f 600 603 601
f 602 604 605
f 602 605 603
f 604 606 607
f 604 607 605
f 606 608 609
f 606 609 607
f 608 594 595
f 608 595 609
f 610 612 613
f 610 613 611
f 612 614 615
f 612 615 613
f 614 616 617
f 614 617 615
f 616 618 619
f 616 619 617
f 618 620 621
f 618 621 619
f 620 622 623
f 620 623 621
f 622 624 625
f 622 625 623
f 624 610 611
f 624 611 625
f 626 628 629
f 626 629 627
f 628 630 631
f 628 631 629
f 630 632 633
f 630 633 631
f 632 634 635
f 632 635 633
f 634 636 637
f 634 637 635
f 636 638 639
f 636 639 637
f 638 640 641
f 638 641 639
f 640 626 627
f 640 627 641
f 642 644 645
f 642 645 643
f 644 646 647
f 644 647 645
f 646 648 649
f 646 649 647
f 648 650 651
f 648 651 649
f 650 652 653
f 650 653 651
f 652 654 655
f 652 655 653
f 654 656 657
f 654 657 655
f 656 642 643
f 656 643 657
f 658 660 661
f 658 661 659
f 660 662 663
f 660 663 661
f 662 664 665
f 662 665 663
f 664 666 667
f 664 667 665
f 666 668 669
f 666 669 667
f 668 670 671
f 668 671 669
f 670 672 673
f 670 673 671
f 672 658 659
f 672 659 673
f 674 676 677
f 674 677 675
f 676 678 679
f 676 679 677
f 678 680 681
f 678 681 679
f 680 682 683
f 680 683 681
f 682 684 685
f 682 685 683
f 684 686 687
f 684 687 685
f 686 688 689
f 686 689 687
f 688 674 675
f 688 675 689
f 690 692 693
f 690 693 691
f 692 694 695
f 692 695 693
f 694 696 697
f 694 697 695
f 696 698 699
f 696 699 697
f 698 700 701
f 698 701 699
f 700 702 703
f 700 703 701
f 702 704 705
f 702 705 703
f 704 690 691
f 704 691 705
f 706 708 709
f 706 709 707
f 708 710 711
f 708 711 709
f 710 712 713
f 710 713 711
f 712 714 715
f 712 715 713
f 714 716 717
f 714 717 715
f 716 718 719
f 716 719 717
f 718 720 721
f 718 721 719
f 720 706 707
f 720 707 721
f 722 724 725
f 722 725 723
f 724 726 727
f 724 727 725
f 726 728 729
f 726 729 727
f 728 730 731
f 728 731 729
f 730 732 733
f 730 733 731
f 732 734 735
f 732 735 733
f 734 736 737
f 734 737 735
f 736 722 723
f 736 723 737
f 738 740 741
f 738 741 739
f 740 742 743
f 740 743 741
f 742 744 745
f 742 745 743
f 744 746 747
f 744 747 745
f 746 748 749
f 746 749 747
f 748 750 751
f 748 751 749
f 750 752 753
f 750 753 751
f 752 738 739
f 752 739 753
f 754 756 757
f 754 757 755
f 756 758 759
f 756 759 757
f 758 760 761
f 758 761 759
f 760 762 763
f 760 763 761
f 762 764 765
f 762 765 763
f 764 754 755
f 764 755 765
f 766 768 769
f 766 769 767
f 768 770 771
f 768 771 769
f 770 772 773
f 770 773 771
f 772 774 775
f 772 775 773
f 774 776 777
f 774 777 775
f 776 766 767
f 776 767 777
f 778 780 781
f 778 781 779
f 780 782 783
f 780 783 781
f 782 784 785
f 782 785 783
f 784 786 787
f 784 787 785
f 786 788 789
f 786 789 787
f 788 778 779
f 788 779 789
f 790 792 793
f 790 793 791
f 792 794 795
f 792 795 793
f 794 796 797
f 794 797 795
f 796 798 799
f 796 799 797
f 798 800 801
f 798 801 799
f 800 790 791
f 800 791 801
f 802 804 805
f 802 805 803
f 804 806 807
f 804 807 805
f 806 808 809
f 806 809 807
f 808 810 811
f 808 811 809
f 810 812 813
f 810 813 811
f 812 802 803
f 812 803 813
f 814 816 817
f 814 817 815
f 816 818 819
f 816 819 817
f 818 820 821
f 818 821 819
f 820 822 823
f 820 823 821
f 822 824 825
f 822 825 823
f 824 814 815
f 824 815 825
f 826 828 829
f 826 829 827
f 828 830 831
f 828 831 829
f 830 832 833
f 830 833 831
f 832 834 835
f 832 835 833
f 834 836 837
f 834 837 835
f 836 826 827
f 836 827 837
f 838 840 841
f 838 841 839
f 840 842 843
f 840 843 841
f 842 844 845
f 842 845 843
f 844 846 847
f 844 847 845
f 846 848 849
f 846 849 847
f 848 838 839
f 848 839 849
f 850 852 853
f 850 853 851
f 852 854 855
f 852 855 853
f 854 856 857
f 854 857 855
f 856 850 851
f 856 851 857
f 858 860 861
f 858 861 859
f 860 862 863
f 860 863 861
f 862 864 865
f 862 865 863
f 864 858 859
f 864 859 865
f 866 868 869
f 866 869 867
f 868 870 871
f 868 871 869
f 870 872 873
f 870 873 871
f 872 866 867
f 872 867 873
f 874 876 877
f 874 877 875
f 876 878 879
f 876 879 877
f 878 880 881
f 878 881 879
f 880 874 875
f 880 875 881
f 882 884 885
f 882 885 883
f 884 886 887
f 884 887 885
f 886 888 889
f 886 889 887
f 888 882 883
f 888 883 889
f 890 892 893
f 890 893 891
f 892 894 895
f 892 895 893
f 894 896 897
f 894 897 895
f 896 890 891
f 896 891 897
f 898 900 901
f 898 901 899
f 900 902 903
f 900 903 901
f 902 904 905
f 902 905 903
f 904 898 899
f 904 899 905
f 906 908 909
f 906 909 907
f 908 910 911
f 908 911 909
f 910 912 913
f 910 913 911
f 912 906 907
f 912 907 913
f 914 916 917
f 914 917 915
f 916 918 919
f 916 919 917
f 918 920 921
f 918 921 919
f 920 914 915
f 920 915 921
f 922 924 925
f 922 925 923
f 924 926 927
f 924 927 925
f 926 928 929
f 926 929 927
f 928 922 923
f 928 923 929
f 930 932 933
f 930 933 931
f 932 934 935
f 932 935 933
f 934 936 937
f 934 937 935
f 936 930 931
f 936 931 937
f 938 940 941
f 938 941 939
f 940 942 943
f 940 943 941
f 942 944 945
f 942 945 943
f 944 938 939
f 944 939 945
f 946 948 949
f 946 949 947
f 948 950 951
f 948 951 949
f 950 952 953
f 950 953 951
f 952 946 947
f 952 947 953
f 954 956 957
f 954 957 955
f 956 958 959
f 956 959 957
f 958 960 961
f 958 961 959
f 960 954 955
f 960 955 961
f 962 964 965
f 962 965 963
f 964 966 967
f 964 967 965
f 966 968 969
f 966 969 967
f 968 962 963
f 968 963 969
f 970 972 973
f 970 973 971
f 972 974 975
f 972 975 973
f 974 976 977
f 974 977 975
f 976 970 971
f 976 971 977
f 978 980 981
f 978 981 979
f 980 982 983
f 980 983 981
f 982 984 985
f 982 985 983
f 984 978 979
f 984 979 985
f 986 988 989
f 986 989 987
f 988 990 991
f 988 991 989
f 990 992 993
f 990 993 991
f 992 986 987
f 992 987 993
f 994 996 997
f 994 997 995
f 996 998 999
f 996 999 997
f 998 1000 1001
f 998 1001 999
f 1000 994 995
f 1000 995 1001
f 1002 1004 1005
f 1002 1005 1003
f 1004 1006 1007
f 1004 1007 1005
f 1006 1008 1009
f 1006 1009 1007
f 1008 1002 1003
f 1008 1003 1009
f 1010 1012 1013
f 1010 1013 1011
f 1012 1014 1015
f 1012 1015 1013
f 1014 1016 1017
f 1014 1017 1015
f 1016 1010 1011
f 1016 1011 1017
f 1018 1020 1021
f 1018 1021 1019
f 1020 1022 1023
f 1020 1023 1021
f 1022 1024 1025
f 1022 1025 1023
f 1024 1018 1019
f 1024 1019 1025
f 1026 1028 1029
f 1026 1029 1027
f 1028 1030 1031
f 1028 1031 1029
f 1030 1032 1033
f 1030 1033 1031
f 1032 1026 1027
f 1032 1027 1033
f 1034 1036 1037
f 1034 1037 1035
f 1036 1038 1039
f 1036 1039 1037
f 1038 1040 1041
f 1038 1041 1039
f 1040 1034 1035
f 1040 1035 1041
f 1042 1044 1045
f 1042 1045 1043
f 1044 1046 1047
f 1044 1047 1045
f 1046 1048 1049
f 1046 1049 1047
f 1048 1042 1043
f 1048 1043 1049
f 1050 1052 1053
f 1050 1053 1051
f 1052 1054 1055
f 1052 1055 1053
f 1054 1056 1057
f 1054 1057 1055
f 1056 1050 1051
f 1056 1051 1057
f 1058 1060 1061
f 1058 1061 1059
f 1060 1062 1063
f 1060 1063 1061
f 1062 1064 1065
f 1062 1065 1063
f 1064 1058 1059
f 1064 1059 1065
f 1066 1068 1069
f 1066 1069 1067
f 1068 1070 1071
f 1068 1071 1069
f 1070 1072 1073
f 1070 1073 1071
f 1072 1066 1067
f 1072 1067 1073
f 1074 1076 1077
f 1074 1077 1075
f 1076 1078 1079
f 1076 1079 1077
f 1078 1080 1081
f 1078 1081 1079
f 1080 1074 1075
f 1080 1075 1081
f 1082 1084 1085
f 1082 1085 1083
f 1084 1086 1087
f 1084 1087 1085
f 1086 1088 1089
f 1086 1089 1087
f 1088 1082 1083
f 1088 1083 1089
f 1090 1092 1093
f 1090 1093 1091
f 1092 1094 1095
f 1092 1095 1093
f 1094 1096 1097
f 1094 1097 1095
f 1096 1090 1091
f 1096 1091 1097
f 1098 1100 1101
f 1098 1101 1099
f 1100 1102 1103
f 1100 1103 1101
f 1102 1104 1105
f 1102 1105 1103
f 1104 1098 1099
f 1104 1099 1105
f 1106 1108 1109
f 1106 1109 1107
f 1108 1110 1111
f 1108 1111 1109
f 1110 1112 1113
f 1110 1113 1111
f 1112 1106 1107
f 1112 1107 1113
f 1114 1116 1117
f 1114 1117 1115
f 1116 1118 1119
f 1116 1119 1117
f 1118 1120 1121
f 1118 1121 1119
f 1120 1114 1115
f 1120 1115 1121
f 1122 1124 1125
f 1122 1125 1123
f 1124 1126 1127
f 1124 1127 1125
f 1126 1128 1129
f 1126 1129 1127
f 1128 1122 1123
f 1128 1123 1129
